<?xml version="1.0" encoding="UTF-8" standalone="no"?>
<svg
   xmlns:dc="http://purl.org/dc/elements/1.1/"
   xmlns:cc="http://creativecommons.org/ns#"
   xmlns:rdf="http://www.w3.org/1999/02/22-rdf-syntax-ns#"
   xmlns:svg="http://www.w3.org/2000/svg"
   xmlns="http://www.w3.org/2000/svg"
   xmlns:sodipodi="http://sodipodi.sourceforge.net/DTD/sodipodi-0.dtd"
   xmlns:inkscape="http://www.inkscape.org/namespaces/inkscape"
   version="1.1"
   id="svg2"
   xml:space="preserve"
   width="2002.6667"
   height="1496"
   viewBox="0 0 2002.6667 1496"
   sodipodi:docname="37126.eps"><metadata
     id="metadata8"><rdf:RDF><cc:Work
         rdf:about=""><dc:format>image/svg+xml</dc:format><dc:type
           rdf:resource="http://purl.org/dc/dcmitype/StillImage" /></cc:Work></rdf:RDF></metadata><defs
     id="defs6" /><sodipodi:namedview
     pagecolor="#666666"
     bordercolor="#666666"
     borderopacity="1"
     objecttolerance="10"
     gridtolerance="10"
     guidetolerance="10"
     inkscape:pageopacity="0"
     inkscape:pageshadow="2"
     inkscape:window-width="640"
     inkscape:window-height="480"
     id="namedview4" /><g
     id="g10"
     inkscape:groupmode="layer"
     inkscape:label="ink_ext_XXXXXX"
     transform="matrix(1.3333333,0,0,-1.3333333,0,1496)"><g
       id="g12"
       transform="scale(0.1)"><path
         d="M 0,40 H 15020 V 11260 H 0 Z"
         style="fill:transparent;fill-opacity:1;fill-rule:nonzero;stroke:none"
         id="path14" /><path
         d="m 10609,978 c -440,0.102 -1302.45,66.4 -1936.89,176.9 -524.91,78.98 -838.64,144.07 -1215.98,144.07 -143.24,0 -295.66,-9.38 -472.25,-30.95 -202.29,-24.7 -489.49,-40.31 -779.18,-40.31 -300.42,0 -603.51,16.8 -817.03,57.7 C 4898.7,1181.8 4115.61,1118 3738.38,1118 c -37.84,0 -71.68,0.7 -100.65,2 -664.25,30 -2975.48,110 -2247.53,510 330.91,181.84 1037.71,231.41 1710.48,231.41 807.18,0 1565.28,-71.41 1565.28,-71.41 331.31,-44.63 579.77,-88.44 759.2,-130.95 232.54,58.44 554.65,78.74 875.5,78.74 421.64,0 841.06,-35.08 1051.75,-64.76 81.44,-11.48 178.23,-16.21 282.58,-16.2 489.71,0.01 1144.46,104.19 1144.49,104.19 175.32,31.25 380.16,62.91 617.67,94.91 0,0 990.35,93.29 2044.95,93.29 878.9,0 1802.5,-64.79 2234.7,-302.32 951.1,-522.6 -2068.5,-627.1 -2936.3,-666.298 -37.9,-1.7 -82,-2.602 -131.5,-2.602"
         style="fill:#ececec;fill-opacity:1;fill-rule:nonzero;stroke:none"
         id="path16" /><path
         d="m 5528.33,7703.8 622.82,415.21 426.14,753.95 177.16,-115.21 -319.21,-879.13 -764.86,-327.8 -142.05,152.98"
         style="fill:#a1bdcc;fill-opacity:1;fill-rule:nonzero;stroke:none"
         id="path18" /><path
         d="m 9412.63,7431.12 -139.26,-66.05 -579.12,-841.36 30.24,-202.15 428.69,5.47 259.45,1104.09"
         style="fill:#8aad9f;fill-opacity:1;fill-rule:nonzero;stroke:none"
         id="path20" /><path
         d="m 6428.18,5462.55 38.06,-1623.84 -281.21,-2097.62 -235.32,-2.79 -171.55,1930.38 -344.95,1928.33 994.97,-134.46"
         style="fill:#8c9498;fill-opacity:1;fill-rule:nonzero;stroke:none"
         id="path22" /><path
         d="m 5950.73,1766.32 1.51,-127.24 255.99,-124.21 125.73,128.74 -128.75,125.73 -254.48,-3.02"
         style="fill:#3a3029;fill-opacity:1;fill-rule:nonzero;stroke:none"
         id="path24" /><path
         d="m 5149.94,1705.02 202.35,-171.99 -50.59,-101.18 -374.34,80.94 v 192.23 h 222.58"
         style="fill:#3a3029;fill-opacity:1;fill-rule:nonzero;stroke:none"
         id="path26" /><path
         d="M 5612.14,4823.76 5443.95,3249.8 5222.02,1680.92 l -316.52,15.06 11.55,1627.55 -190.53,1509.53 447.47,208.44 438.15,-217.74"
         style="fill:#8c9498;fill-opacity:1;fill-rule:nonzero;stroke:none"
         id="path28" /><path
         d="m 4967.14,7603.63 614.84,115.38 c 0,0 418.41,-269.2 735.71,-1083.91 323.08,-829.58 379.8,-1958.01 379.8,-1958.01 0,0 -2207.2,-568.19 -2071.26,-175.82 l 137.23,1858.54 203.68,1243.82"
         style="fill:#a1bdcc;fill-opacity:1;fill-rule:nonzero;stroke:none"
         id="path30" /><path
         d="m 5441.89,7599.82 c -68.55,-26.1 -137.1,-52.19 -205.65,-78.29 -26.74,52.03 -49.32,106.2 -67.43,161.82 -64,-8.01 -141.22,-10.67 -179.1,41.53 -11.93,16.44 -17.97,36.31 -23.8,55.76 -24.13,80.43 -48.26,160.86 -72.39,241.29 -8.35,27.82 -16.79,56.54 -13.8,85.42 5.24,50.7 44.27,91.19 85.31,121.4 104.75,77.09 242.09,114.56 368.45,83.79 33.63,-8.19 67.01,-21.55 91.98,-45.51 38.51,-36.95 51.22,-92.55 62.12,-144.79 10.07,-48.22 20.13,-96.44 30.2,-144.66 11.58,-55.46 20.79,-120.48 -17.29,-162.43 -20.22,-22.27 -51.26,-34.19 -66.77,-59.96 -27.36,-45.45 7.74,-102.32 8.17,-155.37"
         style="fill:#eacdb0;fill-opacity:1;fill-rule:nonzero;stroke:none"
         id="path32" /><path
         d="m 5712.45,8658 c -23.98,51.45 -56.67,99.31 -89.85,140.6 -57.01,70.95 -168.72,60.05 -252.84,25.28 -181.67,-75.08 -390.71,-79.7 -531.67,-226.37 -80.57,-83.85 -208.03,-157.71 -272.13,-251.32 -26.77,-39.09 -40.27,-86.05 -45.56,-133.13 -18.35,-163.11 65.99,-333.34 206.87,-417.56 31.61,-18.9 65.52,-33.67 99.94,-46.76 71.24,-27.08 157.44,-61.44 230.31,-48.31 -26.86,57.66 -168.16,211.24 -147.72,279.67 32.45,108.59 202.12,160.96 297.24,185.64 103.76,26.92 220.53,2.17 320.65,34.36 72.04,23.17 141.11,98.61 180.79,161.6 62.16,98.71 47.29,203.35 3.97,296.3"
         style="fill:#3a3029;fill-opacity:1;fill-rule:nonzero;stroke:none"
         id="path34" /><path
         d="m 5462.77,7605.46 c 201.17,-393.57 398.05,-789.61 603.63,-1180.93 121.8,-231.87 143.84,-482.82 179.73,-737.62 35.68,-253.32 71.37,-506.64 107.05,-759.95 15.08,-107.03 30.15,-214.06 45.23,-321.09 l -917.9,-174.5 c 27.62,312.77 62.95,624.89 84.76,938.14 20.12,288.91 60.76,614.76 -15.7,897.94 -37.22,137.84 -76.5,275.41 -114.41,413.17 -69.54,252.75 -139.61,505.38 -211.39,757.51 -5.01,17.62 -27.5,61.9 -23.31,80.32 l 262.31,87.01"
         style="fill:#ffffff;fill-opacity:1;fill-rule:nonzero;stroke:none"
         id="path36" /><path
         d="m 10314.9,1769.8 10.2,-100.76 -182.7,-125.64 -106.7,88.32 86.3,113.2 182.7,125.64 10.2,-100.76"
         style="fill:#514943;fill-opacity:1;fill-rule:nonzero;stroke:none"
         id="path38" /><path
         d="m 10310.4,4850.44 30.9,-306.01 -274,-1051.37 254.5,-1689.49 -187.4,-64.65 -493.96,1649.44 -78.39,479.85 2.85,1015.82 745.5,-33.59"
         style="fill:#cab5a1;fill-opacity:1;fill-rule:nonzero;stroke:none"
         id="path40" /><path
         d="m 8869.56,4509.38 394.03,-2830.97 h 179.12 l 32.23,1814.65 325.98,1273.68 -931.36,-257.36"
         style="fill:#cab5a1;fill-opacity:1;fill-rule:nonzero;stroke:none"
         id="path42" /><path
         d="M 9441.67,1700.79 V 1599.1 l -193.68,-101.69 -96.85,101.69 96.85,101.69 h 193.68"
         style="fill:#514943;fill-opacity:1;fill-rule:nonzero;stroke:none"
         id="path44" /><path
         d="m 10300.5,5190.65 c -153,1005.26 -98.4,1737.35 -106.3,1938.37 -7.9,201.01 -149,305.33 -149.1,305.37 -61.88,13.79 -115.76,53.65 -178.29,69.38 -422.96,106.42 -653.65,-216.53 -811.98,-564.85 -195.08,-429.17 -358.97,-872.65 -491.46,-1325.05 -116.29,-397.05 -232.83,-797.68 -281.59,-1209.74 -20.13,-170.02 -36.92,-331.25 149.24,-406.26 296.62,-119.52 629.96,-116.92 943.27,-155.24 359.88,-44.02 720.21,-76.18 1082.51,-91.25 189.1,-7.86 -3.3,434.01 -156.3,1439.27"
         style="fill:#8aad9f;fill-opacity:1;fill-rule:nonzero;stroke:none"
         id="path46" /><path
         d="m 4082.42,1880.87 c 0,0 12.49,-102.82 138.41,-104.55 125.93,-1.73 177.25,-86.4 61.82,-84.81 -115.44,1.58 -252.87,-20.43 -298.58,65.62 -45.71,86.04 64.29,184.88 98.35,123.74"
         style="fill:#bcac98;fill-opacity:1;fill-rule:nonzero;stroke:none"
         id="path48" /><path
         d="m 3695.39,2340.41 c 0,0 -44.95,-9.63 -67.08,-93.29 -22.14,-83.67 -544.97,59.95 -725.09,-63.53 -180.11,-123.48 -203.51,-228.02 -226.12,-416.73 -47.78,-398.84 666.86,-355.51 909.51,-264.37 242.65,91.13 652.48,127.5 542.95,559.33 -20.84,10.78 -434.17,278.59 -434.17,278.59"
         style="fill:#d3c2a4;fill-opacity:1;fill-rule:nonzero;stroke:none"
         id="path50" /><path
         d="m 4164.42,2102.04 -36.03,-28.33 c 0,0 -178.87,-57.78 -381.78,171.36 -79.86,121.54 -54.3,141.94 -54.3,141.94 l 45.47,-10.13 c 0,0 83.93,-264.69 426.64,-274.84"
         style="fill:#37454d;fill-opacity:1;fill-rule:nonzero;stroke:none"
         id="path52" /><path
         d="m 3994.15,2728.02 c 0,0 17.88,27.24 68.61,28.36 50.74,1.11 127.81,-81.99 146.47,-88.74 18.66,-6.76 63.72,-17.86 18.4,-34.91 -45.32,-17.04 -211.4,43.85 -233.48,95.29"
         style="fill:#4f3c22;fill-opacity:1;fill-rule:nonzero;stroke:none"
         id="path54" /><path
         d="m 3819.19,2617.25 c 0,0 80.58,110.46 199.4,111.28 70.19,0.49 133.21,-29 185.89,-73.88 26.84,-22.85 48.01,-50.44 73.2,-74.71 16.7,-16.1 37.54,-23.44 53.82,-40.99 38.53,-41.55 56.9,-116.39 41.98,-171.06 -14.92,-54.67 47.14,-215.14 -135.93,-254.4 -183.06,-39.27 -425.56,71.25 -477.21,166.25 -51.66,95.01 -97.97,191.33 58.85,337.51"
         style="fill:#dacaaf;fill-opacity:1;fill-rule:nonzero;stroke:none"
         id="path56" /><path
         d="m 3848.95,2603.77 c 0,0 -54.37,32.94 -99.86,10.44 -45.49,-22.5 -81.5,-14.33 -80.38,-65.07 1.11,-50.73 -7.44,-177.52 53.14,-216.5 60.57,-38.97 46.33,65.22 77.19,101.13 30.86,35.91 83,154.5 49.91,170"
         style="fill:#4f3c22;fill-opacity:1;fill-rule:nonzero;stroke:none"
         id="path58" /><path
         d="m 4084,1851.47 c 0,0 9.9,-146.88 83.21,-158.38 73.32,-11.5 250.71,-87.4 218.64,-128.95 -32.05,-41.54 -83.95,1.15 -136.41,1.87 -52.47,0.72 -205.41,-21.11 -333.07,29.34 -120.04,15.08 -174.6,-38.42 -174.6,-38.42 L 4084,1851.47"
         style="fill:#d3c2a4;fill-opacity:1;fill-rule:nonzero;stroke:none"
         id="path60" /><path
         d="m 2761.8,1963.02 c -18.02,5.33 -114.03,31.77 -117.89,144.58 -3.86,112.81 70.28,204.51 183.3,202.43 113.01,-2.08 110.91,-104.39 87.47,-119.46 -23.43,-15.07 -161.56,-31.68 -141.47,-155.82 15.69,-52.97 -11.41,-71.73 -11.41,-71.73"
         style="fill:#bcac98;fill-opacity:1;fill-rule:nonzero;stroke:none"
         id="path62" /><path
         d="m 7189.72,8145.97 141.66,-126.84 614.49,-201.08 45.87,108.68 -478.9,331.94 -323.12,-112.7"
         style="fill:#eacdb0;fill-opacity:1;fill-rule:nonzero;stroke:none"
         id="path64" /><path
         d="m 7018.1,7937.7 66.47,-148.22 554.74,-342.49 82.51,76.48 -399.54,395.17 -80.63,210.33 -155.59,16.43 -67.96,-207.7"
         style="fill:#eacdb0;fill-opacity:1;fill-rule:nonzero;stroke:none"
         id="path66" /><path
         d="m 6610.55,9316.73 c 0,0 66.85,62.88 152.38,59.05 85.54,-3.82 425.13,-76.14 600.98,-232.56 175.85,-156.42 419.87,-321.6 266.79,-806.14 -95.73,-224.27 -255.49,-91.42 -387.06,-222.67 -131.57,-131.25 -188.38,-294.41 -388.55,-85.48 -200.16,208.93 -129.28,388.6 -304.96,676.43 -175.69,287.83 -168.9,492.91 60.42,611.37"
         style="fill:#c2969c;fill-opacity:1;fill-rule:nonzero;stroke:none"
         id="path68" /><path
         d="m 6668.58,9354.86 376.54,218.45 239.05,204.54 98.58,-92.46 -168,-256.62 -263.45,-203.45 -282.72,129.54"
         style="fill:#c2969c;fill-opacity:1;fill-rule:nonzero;stroke:none"
         id="path70" /><path
         d="m 6387.58,9089.1 -116.04,-298.08 -233.36,-131.11 37.82,-85.16 286.63,65.45 168.95,168.54 -144,280.36"
         style="fill:#c2969c;fill-opacity:1;fill-rule:nonzero;stroke:none"
         id="path72" /><path
         d="m 6001.79,9528.38 c 0,0 -30.62,-223.46 121.74,-334.02 0,0 -155.82,-27.7 -224.75,102.92 -68.93,130.62 -86.55,192.96 21.34,272.02 107.88,79.06 81.67,-40.92 81.67,-40.92"
         style="fill:#754c3d;fill-opacity:1;fill-rule:nonzero;stroke:none"
         id="path74" /><path
         d="m 6046.21,9264.6 c -195.1,201.11 41.55,454.48 280.56,406.64 135.91,-27.21 330.94,-180.58 274.05,-333.38 18.54,-16 54.08,-44.89 56.68,-69.48 2.83,-26.64 -47.47,-68.85 -66.5,-85.86 -5.28,-4.72 -11.05,-9.46 -18.04,-10.66 -8.74,-1.5 -23.1,7.32 -38.4,17.96 -11.54,-14.21 -25.22,-27.44 -41.29,-39.4 -67.48,-50.18 -161.35,-54.82 -241.12,-27.89 -79.77,26.92 -147.31,81.64 -205.94,142.07"
         style="fill:#eacdb0;fill-opacity:1;fill-rule:nonzero;stroke:none"
         id="path76" /><path
         d="m 6028.15,9446.83 c 140.55,5.97 246.86,117.52 382.15,121.97 0,0 88.48,2.87 194.25,-110.27 0,0 111.4,116.96 36.96,276.14 -74.44,159.18 -420.29,245.33 -420.29,245.33 0,0 -230.3,-52.3 -350.99,-279.59 -40.95,-77.11 -43.15,-176.91 41.92,-226.72 36.39,-21.31 75.94,-28.56 116,-26.86"
         style="fill:#754c3d;fill-opacity:1;fill-rule:nonzero;stroke:none"
         id="path78" /><path
         d="m 6673.4,9355.14 c 0,0 118.77,-78.68 81.54,-145.5 -37.23,-66.82 -174.51,-175.91 -213.54,-181.22 -54.14,-7.36 -105.23,91.95 -105.23,91.95 l -48.59,-31.27 c 0,0 225.4,-538.35 420.81,-434.59 195.4,103.77 384.54,286.08 288.13,427.36 -96.4,141.27 -370.16,299.51 -370.16,299.51 l -52.96,-26.24"
         style="fill:#f2d263;fill-opacity:1;fill-rule:nonzero;stroke:none"
         id="path80" /><path
         d="m 7931.02,7811.41 42.11,-117.25 51.73,17.56 23.22,176.36 -65.9,44.55 -51.16,-121.22"
         style="fill:#3a3029;fill-opacity:1;fill-rule:nonzero;stroke:none"
         id="path82" /><path
         d="m 7704.45,7540.65 -98.09,-71.38 -32.38,-81.38 55.52,-41.16 120.08,156.16 -45.13,37.76"
         style="fill:#3a3029;fill-opacity:1;fill-rule:nonzero;stroke:none"
         id="path84" /><path
         d="m 7294.79,9767.88 73.37,138.28 28.64,-15.95 -1.23,-136.91 29.73,8.46 -1.1,-24.41 -55.95,-38.36 -73.46,68.89"
         style="fill:#eacdb0;fill-opacity:1;fill-rule:nonzero;stroke:none"
         id="path86" /><path
         d="m 6043.98,8649.93 -62.34,2.41 -46.78,-61.5 31.77,-55.22 67.91,-12.82 38.51,54.91 -29.07,72.22"
         style="fill:#eacdb0;fill-opacity:1;fill-rule:nonzero;stroke:none"
         id="path88" /><path
         d="m 7712.4,7601.66 c -350.25,-63.25 -728.2,-374.15 -746.72,-712.45 -186.99,282.54 -763.85,331.1 -1098.03,208.62 -881.88,-323.22 -897.24,-1476.11 -319.1,-2091.71 311.16,-331.33 699.19,-589.55 1104.79,-805.9 339.65,-181.18 1184.05,-531.78 1185.68,-529.36 2.63,-1.26 553.97,728.09 755.45,1056.1 240.59,391.71 444.86,810.66 545.85,1253.84 187.65,823.4 -503.63,1787.77 -1427.92,1620.86"
         style="fill:#b22759;fill-opacity:1;fill-rule:nonzero;stroke:none"
         id="path90" /><path
         d="m 7857.18,3661.56 c -4.93,0 -381.45,155.72 -731.78,312.93 0.79,0.02 1.58,0.04 2.37,0.06 344.29,-154 706.32,-303.7 711.21,-303.7 0.02,0 0.04,0 0.04,0.01 h 0.01 c 2.23,-0.01 219.53,286.37 430.93,580.77 0.07,-11.13 0.46,-22.09 1.24,-32.87 -205.9,-285.93 -411.8,-557.19 -413.97,-557.19 h -0.01 c 0,-0.01 -0.02,-0.01 -0.04,-0.01"
         style="fill:#e0e0e0;fill-opacity:1;fill-rule:nonzero;stroke:none"
         id="path92" /><path
         d="m 8271.2,4218.76 c -0.78,10.78 -1.17,21.74 -1.24,32.87 125.76,175.13 249.42,353.09 324.51,475.33 240.59,391.71 444.86,810.66 545.85,1253.84 28.35,124.38 36.63,251.94 27.09,378.38 4.29,16.17 8.47,32.38 12.52,48.61 17.22,-145.23 11.27,-292.89 -21.41,-436.28 -101,-443.18 -305.26,-862.13 -545.86,-1253.84 -78.46,-127.72 -209.96,-316.3 -341.46,-498.91"
         style="fill:#79988c;fill-opacity:1;fill-rule:nonzero;stroke:none"
         id="path94" /><path
         d="m 7838.98,3670.85 c -4.89,0 -366.92,149.7 -711.21,303.7 166.69,4.58 333.01,45.23 493.21,122.34 335.08,161.3 602.44,444.47 814.96,743.89 219.75,309.62 406.8,651.51 553.49,1001.46 70.42,168.02 131.23,340.72 177.98,516.94 9.54,-126.44 1.26,-254 -27.09,-378.38 -100.99,-443.18 -305.26,-862.13 -545.85,-1253.84 -75.09,-122.24 -198.75,-300.2 -324.51,-475.33 -211.4,-294.4 -428.7,-580.78 -430.93,-580.77 h -0.01 c 0,-0.01 -0.02,-0.01 -0.04,-0.01"
         style="fill:#9c224e;fill-opacity:1;fill-rule:nonzero;stroke:none"
         id="path96" /><path
         d="m 8891.86,6142.24 c -234.75,-70.55 -469.5,-141.09 -704.25,-211.64 -175.08,306.6 -350.16,613.2 -525.24,919.79 -25.3,44.33 -91.02,22.65 -93.12,-25.27 -27.29,-623.8 -54.58,-1247.59 -81.87,-1871.39 -1.58,-36.14 -3.16,-72.27 -4.74,-108.4 -227.06,344.16 -454.11,688.31 -681.17,1032.46 -36.41,55.2 -72.83,110.39 -109.24,165.59 -21.95,33.27 -82.64,32.36 -91.39,-12.41 -40.66,-208.18 -81.33,-416.36 -122,-624.53 -264.64,-71.81 -529.28,-143.63 -793.93,-215.44 -62.14,-16.86 -36.03,-113.46 26.21,-96.57 274.61,74.52 549.22,149.03 823.83,223.55 16.07,4.36 31.9,18.29 35.21,35.23 34.85,178.4 69.7,356.8 104.55,535.2 232.94,-353.08 465.89,-706.16 698.83,-1059.23 36.41,-55.2 72.82,-110.39 109.24,-165.59 27.32,-41.4 90.92,-24.92 93.12,25.27 27.29,623.8 54.58,1247.6 81.87,1871.4 1.31,29.84 2.61,59.68 3.92,89.52 153.04,-268 306.08,-536 459.12,-804.01 10.63,-18.61 35.45,-29.04 56.18,-22.81 247.02,74.23 494.05,148.47 741.08,222.7 61.56,18.51 35.6,115.15 -26.21,96.58"
         style="fill:#ffffff;fill-opacity:1;fill-rule:nonzero;stroke:none"
         id="path98" /><path
         d="M 8205.06,2800.19 V 1630.67 h 176.53 l 110.33,706.12 99.3,540.63 -386.16,-77.23"
         style="fill:#2e4661;fill-opacity:1;fill-rule:nonzero;stroke:none"
         id="path100" /><path
         d="m 8591.22,2921.56 66.2,-507.53 88.27,-816.47 176.53,11.04 v 628.89 l 88.26,639.93 -419.26,44.14"
         style="fill:#2e4661;fill-opacity:1;fill-rule:nonzero;stroke:none"
         id="path102" /><path
         d="m 8508.47,4626.19 c 0,0 -187.56,33.1 -264.79,-253.76 -77.24,-286.87 -286.87,-1125.39 -297.9,-1566.72 -11.04,-441.33 275.83,-154.47 617.86,-209.64 342.03,-55.16 623.38,-60.68 623.38,137.92 0,198.6 121.36,1886.69 -678.55,1892.2"
         style="fill:#b26650;fill-opacity:1;fill-rule:nonzero;stroke:none"
         id="path104" /><path
         d="m 8400.81,5196.37 c 156.22,275.51 506.22,99.22 530.2,-175.25 13.63,-156.08 -90.83,-416.35 -274.64,-403.15 -11.48,-25.19 -31.54,-72.91 -57.39,-83.55 -27.99,-11.52 -89.75,29.64 -114.25,44.89 -6.8,4.23 -13.78,8.99 -17.3,16.18 -4.4,9 0.62,27.38 7.3,47.37 -19.08,8 -37.78,18.64 -55.86,32.28 -75.85,57.27 -110.7,157.62 -106.81,252.71 3.88,95.09 41.8,185.73 88.75,268.52"
         style="fill:#eacdb0;fill-opacity:1;fill-rule:nonzero;stroke:none"
         id="path106" /><path
         d="m 8618.85,5267.97 c 0,0 249.97,-62.5 249.97,-166.66 0,-156.58 10.42,-261.65 0,-354.76 l 177.07,104.79 104.15,291.64 c 0,0 -20.83,239.56 -145.82,281.22 -124.98,41.66 -385.37,83.32 -385.37,83.32 l -197.9,-62.49 -145.82,10.42 50.42,-437.46 c 0,0 64.15,312.47 293.3,249.98"
         style="fill:#754c3d;fill-opacity:1;fill-rule:nonzero;stroke:none"
         id="path108" /><path
         d="m 8701.55,4587.58 308.93,-110.34 275.84,-684.06 220.66,-496.49 -121.36,-77.24 -353.07,496.5 -331,871.63"
         style="fill:#b26650;fill-opacity:1;fill-rule:nonzero;stroke:none"
         id="path110" /><path
         d="m 9385.62,3219.45 77.23,-110.33 44.13,44.13 h 132.4 l -132.4,143.44 -121.36,-77.24"
         style="fill:#eacdb0;fill-opacity:1;fill-rule:nonzero;stroke:none"
         id="path112" /><path
         d="m 8205.06,1630.67 -99.3,-99.3 44.13,-66.2 198.6,66.2 v 99.3 h -143.43"
         style="fill:#8c9498;fill-opacity:1;fill-rule:nonzero;stroke:none"
         id="path114" /><path
         d="m 8775.11,1599.4 36.77,-145.27 121.37,-44.13 66.2,33.1 -102.76,163.9 -121.58,-7.6"
         style="fill:#8c9498;fill-opacity:1;fill-rule:nonzero;stroke:none"
         id="path116" /><path
         d="m 8398.14,4603.34 -130.03,-101.08 -262.24,-622.82 -163.9,-447.99 109.27,-54.64 152.97,207.61 293.93,1018.92"
         style="fill:#b26650;fill-opacity:1;fill-rule:nonzero;stroke:none"
         id="path118" /><path
         d="m 7951.24,3376.81 -21.86,-54.63 -142.05,-54.64 v 76.49 l 54.64,87.42 109.27,-54.64"
         style="fill:#eacdb0;fill-opacity:1;fill-rule:nonzero;stroke:none"
         id="path120" /><path
         d="m 8714.03,7310.07 -42.68,126.99 -137.56,89.11 -192.18,-135.88 107.34,-95.58 207.42,52.24 57.66,-36.88"
         style="fill:#eacdb0;fill-opacity:1;fill-rule:nonzero;stroke:none"
         id="path122" /><path
         d="m 7053.34,8978.79 23.27,231.29 36.16,34.43 46.66,-19.64 -2.79,-61.59 43.01,64.47 88.35,37.72 124.6,-107.15 -112.74,-239.9 -246.52,60.37"
         style="fill:#eacdb0;fill-opacity:1;fill-rule:nonzero;stroke:none"
         id="path124" /><path
         d="m 4938.89,7431.12 1365.24,502.14 753.94,1147.3 262.24,-142.04 -546.34,-1300.28 -1392.8,-761.9 -486.59,292.05 44.31,262.73"
         style="fill:#aeccdc;fill-opacity:1;fill-rule:nonzero;stroke:none"
         id="path126" /><path
         d="m 10289.6,7135.61 -229.5,-1289.36 -797.65,-633.75 -146.79,166.82 616.63,718.25 109.27,972.48 207.64,360.58 240.4,-295.02"
         style="fill:#94baab;fill-opacity:1;fill-rule:nonzero;stroke:none"
         id="path128" /><path
         d="m 9120.4,5376.4 -185.76,-163.9 -4.4,-171 69.97,-25.68 120.19,76.49 101.11,166.71 -101.11,117.38"
         style="fill:#eacdb0;fill-opacity:1;fill-rule:nonzero;stroke:none"
         id="path130" /><path
         d="m 9563.15,8265.38 c 0,0 -111.58,-52.82 -137.33,-342.99 -25.76,-290.17 -97.48,-466.97 -97.48,-466.97 0,0 85.18,-67.5 165.85,-41.2 80.67,26.29 109.03,28.52 111.03,148.5 2.01,119.98 84.09,674.19 84.09,674.19 l -126.16,28.47"
         style="fill:#9e6652;fill-opacity:1;fill-rule:nonzero;stroke:none"
         id="path132" /><path
         d="m 9769.75,8113.85 c -113.25,-2.7 -221.14,-80.25 -259.97,-186.85 -44.51,68.47 -53.47,158.83 -23.27,234.78 30.19,75.95 98.74,135.46 178.09,154.61 57.06,-51.27 92.67,-125.76 96.79,-202.44 l 8.36,-0.1"
         style="fill:#9e6652;fill-opacity:1;fill-rule:nonzero;stroke:none"
         id="path134" /><path
         d="m 9518.71,8025.13 c 126.77,276.11 475.72,136.27 521.09,-124.1 25.8,-148.06 -52.72,-405.37 -229.49,-407.8 -8.9,-25.02 -24.18,-72.27 -48.01,-84.56 -25.82,-13.3 -88.21,20.99 -112.88,33.56 -6.84,3.49 -13.9,7.46 -17.85,14.05 -4.94,8.24 -1.65,26.22 3.1,45.87 -18.89,6.08 -37.63,14.72 -56.03,26.29 -77.19,48.52 -118.7,141.58 -122.77,232.79 -4.07,91.2 24.75,180.94 62.84,263.9"
         style="fill:#eacdb0;fill-opacity:1;fill-rule:nonzero;stroke:none"
         id="path136" /><path
         d="m 9671.74,8315.42 c 0,0 -73.95,-148.45 115.97,-241.97 189.93,-93.53 281.29,-283.04 205.43,-440.28 -75.84,-157.25 -254.6,-242.59 -186.88,-305.75 67.72,-63.16 366.64,-91.08 366.64,-91.08 0,0 319.9,541.47 147.1,853.16 -172.8,311.69 -511.09,405 -648.26,225.92"
         style="fill:#9e6652;fill-opacity:1;fill-rule:nonzero;stroke:none"
         id="path138" /></g></g></svg>
